<svg width="48" height="63" viewBox="0 0 48 63" fill="none" xmlns="http://www.w3.org/2000/svg">
<path d="M19.867 0.476626C17.2283 1.38644 15.9546 2.72854 15.2039 5.34441L14.7717 6.86843L15.7271 6.73197C19.8898 6.04953 24.6438 6.16332 28.9202 7.07313C30.1713 7.3234 31.2176 7.50532 31.2632 7.43708C31.3086 7.39163 30.3987 7.07314 29.2614 6.73197C26.5318 5.91306 26.6228 5.95862 27.0777 5.93584C27.4644 5.91306 30.6944 6.50449 31.3769 6.70919C31.7408 6.82298 31.7408 6.77742 31.4679 5.79937C30.4669 2.52384 29.2386 1.18174 26.3726 0.3174C24.7803 -0.160288 21.5048 -0.0920439 19.867 0.476626ZM27.1687 1.24997C28.5335 1.65948 29.3069 2.41005 30.103 4.16155C30.8992 5.89039 30.74 6.57272 29.9438 4.95768C28.9657 3.02426 28.1468 2.27358 26.1906 1.45478C24.6665 0.840573 25.3034 0.681347 27.1687 1.24997Z" fill="#9B73E6"/>
<path d="M18.3885 7.20961C14.9083 7.57356 5.62759 10.053 3.71694 11.122C3.07995 11.4632 2.98905 11.577 3.37567 11.486C6.58296 10.7581 7.87951 10.6216 11.3371 10.5988C15.4997 10.5988 15.6362 10.6216 23.3928 12.4868C30.376 14.1701 32.8782 14.5796 37.382 14.716C41.0443 14.8297 44.1378 14.6022 44.5701 14.1701C44.661 14.079 42.3864 13.9654 39.4748 13.9654C36.5632 13.9426 33.9018 13.8289 33.5151 13.6924C33.0375 13.556 33.9246 13.5104 36.4722 13.6014C40.1117 13.7151 44.0924 13.5104 44.0924 13.2147C44.0924 13.1238 43.6147 12.919 43.0233 12.7371C42.4091 12.5778 40.4529 11.8271 38.6559 11.0992C30.4216 7.80104 24.1662 6.5954 18.3885 7.20961Z" fill="#9B73E6"/>
<path d="M6.78774 11.9412C4.05819 12.3279 2.3977 12.8283 1.16928 13.6699C-0.468433 14.8073 -0.400199 15.8081 1.46499 17.4914C3.78514 19.6068 8.94875 21.6085 12.1333 21.6085C13.0204 21.6085 13.2023 21.5176 13.4298 21.0398C13.6573 20.5166 13.6118 20.3575 12.7929 19.493C11.7011 18.3557 11.3371 17.5596 11.3371 16.3995C11.3371 15.2622 11.7011 14.2159 12.5427 13.0103C12.9066 12.4643 13.1569 11.9639 13.0886 11.9185C12.8156 11.6454 8.74394 11.6454 6.78774 11.9412Z" fill="#9B73E6"/>
<path d="M13.8849 13.0102C12.9523 14.3978 12.5656 15.9445 12.8841 17.0136C13.1798 17.9917 13.7712 18.6969 15.2042 19.7887C17.4562 21.5175 17.9793 22.6321 17.2515 24.3152L16.7965 25.3616L17.3651 24.6792C18.0248 23.8831 18.2751 22.8368 18.0476 21.6767C17.9339 21.0853 17.5244 20.4939 16.5008 19.4702C15.7274 18.6969 14.9085 17.8324 14.7038 17.514C14.0669 16.6041 14.1806 15.0574 14.9768 13.5333C15.3635 12.8282 15.6592 12.1913 15.6592 12.1458C15.6592 12.1003 15.4089 12.0548 15.0905 12.0548C14.7038 12.0548 14.3627 12.3278 13.8849 13.0102Z" fill="#9B73E6"/>
<path d="M45.6162 15.2621C43.4553 16.1265 40.6347 16.445 36.6996 16.2857C34.6978 16.2175 32.4686 16.081 31.7635 16.0128C30.5579 15.8763 30.4442 15.8991 30.4442 16.2857C30.4442 16.5132 30.6944 17.2411 30.9901 17.8553C31.4905 18.9472 31.6497 19.0836 33.6059 20.0845C34.766 20.6759 35.9261 21.1535 36.1991 21.1535C36.8588 21.1535 39.7704 20.403 41.4537 19.8115C43.7056 19.0154 46.2987 17.1729 46.9583 15.8991C47.5952 14.6707 47.3905 14.557 45.6162 15.2621Z" fill="#9B73E6"/>
<path d="M18.8889 18.1281C19.4575 19.9707 19.594 20.7668 19.594 22.7458C19.6168 24.7702 19.5485 25.3162 19.1163 26.2488C18.6614 27.2496 18.6614 27.3406 19.0253 26.9993C19.8897 26.2032 20.7314 24.0651 20.8451 22.3818L20.9361 20.744L21.755 21.29C22.8468 22.0406 24.1434 22.0179 25.1442 21.2444C26.1906 20.4483 26.0768 20.1981 24.8485 20.6303C24.0069 20.926 23.643 20.926 22.9378 20.7213C21.9142 20.4256 20.3902 18.9925 19.2074 17.1955C18.7524 16.4904 18.3202 15.9218 18.2748 15.9218C18.252 15.9218 18.5249 16.9226 18.8889 18.1281Z" fill="#9B73E6"/>
<path d="M13.7938 26.226C12.6793 27.1358 12.2471 28.1822 12.2471 29.8427V31.3439L13.4526 32.0264C14.7265 32.7543 17.3196 35.2565 18.275 36.7122C19.7308 38.8732 22.5513 45.5835 22.5513 46.9028C22.5513 47.2212 22.1419 48.3812 21.6187 49.4731C18.7299 55.5011 14.5445 59.095 8.74409 60.5508C3.76251 61.8018 -0.422832 59.5954 2.1248 57.0251C3.01183 56.1379 4.46763 55.5693 6.46939 55.2962C7.44755 55.1598 8.58484 55.0005 8.94879 54.9551C9.33552 54.8868 8.6303 54.9096 7.37921 54.9551C4.42217 55.1143 2.39773 55.7284 1.28311 56.843C0.214049 57.9349 0.03202 58.6628 0.577996 59.7546C1.21488 61.0285 2.69345 61.6882 5.35477 61.8246C7.8115 61.9383 9.58567 61.6426 12.0423 60.71C16.478 59.0041 20.4814 55.1371 22.6878 50.4512L23.5295 48.7225L24.3028 50.2238C25.2127 51.9525 26.714 54.0453 28.0333 55.4783C29.1479 56.6611 33.0376 59.6182 34.3797 60.3006C37.5414 61.9383 43.6148 63.0529 45.3436 62.325C45.9122 62.0976 45.6847 62.0065 43.5238 61.6654C37.496 60.6646 33.629 58.731 29.762 54.8186C27.6921 52.7486 26.0315 50.4285 25.0535 48.313L24.4621 46.9937L25.4174 44.0367C27.3054 38.2817 29.1934 35.2791 32.6736 32.5496L34.5389 31.0938V29.8655C34.5389 28.0002 33.2196 25.7028 32.1504 25.7028C31.741 25.7028 29.9213 27.7272 28.9431 29.2513C27.2599 31.8899 26.0543 35.1427 24.644 40.9886C24.1664 42.9676 23.7114 44.5826 23.6432 44.5826C23.5295 44.5826 22.4376 41.2388 21.7552 38.7821C21.1183 36.462 20.0947 33.6186 19.2986 31.9354C17.7518 28.7054 15.5226 25.7028 14.6583 25.7028C14.5217 25.7028 14.1351 25.9303 13.7938 26.226Z" fill="#9B73E6"/>
<path d="M12.8155 32.7087C13.3387 34.0735 13.6116 35.0517 14.2713 38.2135C14.5442 39.51 14.9082 43.5135 15.2949 49.0181C15.5224 52.1344 15.6133 52.8396 15.6361 51.5203C15.7499 46.2203 16.1365 38.7366 16.364 37.9178C16.5004 37.3946 16.7734 36.7804 16.9554 36.5757C17.2739 36.2117 17.2739 36.1207 16.9326 35.5975C16.455 34.8696 13.7253 32.6177 13.1112 32.4586C12.7699 32.3676 12.7017 32.413 12.8155 32.7087Z" fill="#9B73E6"/>
<path d="M33.0604 33.0273C32.6964 33.3003 31.7638 34.1192 31.0359 34.8471C29.7621 36.1208 29.7166 36.1891 30.0806 36.5986C30.6265 37.19 30.8312 39.1006 31.0132 45.1058C31.1724 51.3612 31.4681 52.6349 31.6728 48.1084C31.9685 41.58 32.8557 35.6659 33.9703 32.9135C34.175 32.3903 33.9021 32.4359 33.0604 33.0273Z" fill="#9B73E6"/>
</svg>
